<?xml version="1.0" standalone="no"?>
<!DOCTYPE svg PUBLIC "-//W3C//DTD SVG 20010904//EN"
 "http://www.w3.org/TR/2001/REC-SVG-20010904/DTD/svg10.dtd">
<svg version="1.0" xmlns="http://www.w3.org/2000/svg"
 width="371.000000pt" height="313.000000pt" viewBox="0 0 371.000000 313.000000"
 preserveAspectRatio="xMidYMid meet">

<g transform="translate(0.000000,313.000000) scale(0.100000,-0.100000)"
fill="#000000" stroke="none">
<path d="M1735 3081 c-69 -20 -150 -55 -158 -67 -3 -5 70 -10 162 -10 199 -2
355 -27 558 -90 10 -3 -5 16 -34 43 -60 56 -153 106 -238 128 -78 20 -214 18
-290 -4z"/>
<path d="M1495 2766 c-133 -20 -143 -23 -154 -59 -36 -116 -52 -252 -40 -350
l8 -68 -35 -31 c-114 -100 -231 -345 -284 -595 -45 -213 -43 -414 7 -618 30
-121 58 -165 107 -165 14 0 26 2 26 4 0 2 -7 38 -16 81 -21 104 -31 268 -22
395 23 337 185 737 328 810 51 26 124 26 237 -1 143 -33 201 -34 363 -5 216
39 262 28 346 -86 106 -144 187 -373 224 -630 22 -150 10 -401 -27 -545 -4
-19 -1 -23 20 -23 43 0 75 35 96 108 52 175 66 304 51 470 -25 286 -116 553
-246 724 -43 57 -54 79 -49 98 2 14 10 77 17 141 16 160 11 175 -72 216 -87
43 -231 88 -365 113 -141 27 -392 35 -520 16z m444 -203 c17 -20 35 -49 40
-64 9 -25 6 -31 -25 -59 -49 -43 -95 -41 -140 4 -19 19 -34 43 -34 54 0 24 83
102 109 102 11 0 33 -17 50 -37z"/>
</g>
</svg>
